<svg width="13" height="24" viewBox="0 0 13 24" fill="none" xmlns="http://www.w3.org/2000/svg">
<path d="M1.86068 21.9487C0.819531 20.1554 0.330853 18.0821 0.458497 15.9999V8.20507C0.433798 6.71875 0.602202 5.23567 0.959279 3.79481C1.29442 2.71811 1.9623 1.78218 2.86225 1.12815C3.98053 0.450275 5.27066 0.128917 6.56804 0.20507C8.67133 0.20507 10.1737 0.71789 11.0751 1.8461C12.112 3.33582 12.608 5.14977 12.4773 6.9743V7.79481H9.47258V7.07687C9.47712 6.21789 9.4101 5.36008 9.27226 4.51276C9.18782 3.97732 8.89973 3.49792 8.47102 3.17943C7.90807 2.80104 7.23995 2.62099 6.56804 2.66661C5.84991 2.61949 5.13912 2.83785 4.56491 3.28199C4.32933 3.48529 4.13675 3.73569 3.99898 4.01787C3.8612 4.30004 3.78113 4.60805 3.76366 4.92302C3.63163 5.83993 3.56469 6.76543 3.56335 7.69225V16.4102C3.48952 17.7384 3.69443 19.0674 4.16428 20.3076C4.56491 21.1281 5.36616 21.4358 6.56804 21.4358C7.04259 21.4964 7.52402 21.4119 7.95175 21.1929C8.37948 20.9739 8.73439 20.6302 8.9718 20.2051C9.50098 18.9081 9.74051 17.5064 9.67289 16.1025V14.4615H6.76835V12.1025H12.5774V23.6923H10.5743L10.2738 21.0256C10.0113 21.9193 9.4645 22.6975 8.72044 23.2364C7.97639 23.7753 7.07776 24.0441 6.16741 23.9999C5.33984 24.0498 4.51313 23.8885 3.76146 23.5304C3.00978 23.1724 2.35665 22.6289 1.86068 21.9487Z" fill="#111111"/>
</svg>
