<svg width="13" height="24" viewBox="0 0 13 24" fill="none" xmlns="http://www.w3.org/2000/svg">
<path d="M0.5368 0.3076H5.144C6.95638 0.179397 8.75751 0.685711 10.252 1.7435C11.3537 2.66657 11.8545 4.3076 11.8545 6.46145C11.8545 9.4358 10.9531 11.282 9.0501 11.8973L12.2551 23.5897H9.15025L6.14556 12.6153H3.64165V23.5897H0.436646V0.3076H0.5368ZM4.94369 10.3589C5.97618 10.446 7.00538 10.1553 7.84822 9.53837C8.44916 9.02555 8.74963 7.99991 8.74963 6.46145C8.77739 5.69719 8.67574 4.93378 8.44916 4.20504C8.22372 3.68211 7.83659 3.24964 7.34744 2.97427C6.65759 2.65236 5.90034 2.51137 5.144 2.56401H3.7418V10.2563H4.94369V10.3589Z" fill="#111111"/>
</svg>
